<?xml version="1.0" standalone="no"?><!DOCTYPE svg PUBLIC "-//W3C//DTD SVG 1.1//EN" "http://www.w3.org/Graphics/SVG/1.1/DTD/svg11.dtd"><svg t="1618565852204" class="icon" viewBox="0 0 1024 1024" version="1.1" xmlns="http://www.w3.org/2000/svg" p-id="7345" xmlns:xlink="http://www.w3.org/1999/xlink" width="16" height="16"><defs><style type="text/css"></style></defs><path d="M279.48 473.05c85.74 0 155.02 69.27 155.02 155.02s-69.27 155.02-155.02 155.02-155.02-69.27-155.02-155.02 69.27-155.02 155.02-155.02m368.16 232.53c53.51 0 96.88 43.38 96.88 96.88s-43.38 96.88-96.88 96.88-96.88-43.38-96.88-96.88 43.37-96.88 96.88-96.88m19.38-581.31c128.42 0 232.52 104.1 232.52 232.52 0 128.37-104.15 232.52-232.52 232.52-128.42 0-232.52-104.1-232.52-232.52-0.01-128.37 104.14-232.52 232.52-232.52z" p-id="7346"></path></svg>