<svg id="SvgjsSvg1138" width="856" height="388" xmlns="http://www.w3.org/2000/svg" version="1.1" xmlns:xlink="http://www.w3.org/1999/xlink" xmlns:svgjs="http://svgjs.com/svgjs"><defs id="SvgjsDefs1139"><marker id="SvgjsMarker1240" markerWidth="16" markerHeight="12" refX="16" refY="6" viewBox="0 0 16 12" orient="auto" markerUnits="userSpaceOnUse" stroke-dasharray="0,0"><path id="SvgjsPath1241" d="M0,2 L14,6 L0,11 L0,2" fill="#323232" stroke="#323232" stroke-width="2"></path></marker><marker id="SvgjsMarker1244" markerWidth="16" markerHeight="12" refX="16" refY="6" viewBox="0 0 16 12" orient="auto" markerUnits="userSpaceOnUse" stroke-dasharray="0,0"><path id="SvgjsPath1245" d="M0,2 L14,6 L0,11 L0,2" fill="#323232" stroke="#323232" stroke-width="2"></path></marker><marker id="SvgjsMarker1248" markerWidth="16" markerHeight="12" refX="16" refY="6" viewBox="0 0 16 12" orient="auto" markerUnits="userSpaceOnUse" stroke-dasharray="0,0"><path id="SvgjsPath1249" d="M0,2 L14,6 L0,11 L0,2" fill="#323232" stroke="#323232" stroke-width="2"></path></marker><marker id="SvgjsMarker1252" markerWidth="16" markerHeight="12" refX="16" refY="6" viewBox="0 0 16 12" orient="auto" markerUnits="userSpaceOnUse" stroke-dasharray="0,0"><path id="SvgjsPath1253" d="M0,2 L14,6 L0,11 L0,2" fill="#323232" stroke="#323232" stroke-width="2"></path></marker><marker id="SvgjsMarker1256" markerWidth="16" markerHeight="12" refX="16" refY="6" viewBox="0 0 16 12" orient="auto" markerUnits="userSpaceOnUse" stroke-dasharray="0,0"><path id="SvgjsPath1257" d="M0,2 L14,6 L0,11 L0,2" fill="#323232" stroke="#323232" stroke-width="2"></path></marker><marker id="SvgjsMarker1260" markerWidth="16" markerHeight="12" refX="16" refY="6" viewBox="0 0 16 12" orient="auto" markerUnits="userSpaceOnUse" stroke-dasharray="0,0"><path id="SvgjsPath1261" d="M0,2 L14,6 L0,11 L0,2" fill="#323232" stroke="#323232" stroke-width="2"></path></marker><marker id="SvgjsMarker1264" markerWidth="16" markerHeight="12" refX="16" refY="6" viewBox="0 0 16 12" orient="auto" markerUnits="userSpaceOnUse" stroke-dasharray="0,0"><path id="SvgjsPath1265" d="M0,2 L14,6 L0,11 L0,2" fill="#323232" stroke="#323232" stroke-width="2"></path></marker><marker id="SvgjsMarker1268" markerWidth="16" markerHeight="12" refX="16" refY="6" viewBox="0 0 16 12" orient="auto" markerUnits="userSpaceOnUse" stroke-dasharray="0,0"><path id="SvgjsPath1269" d="M0,2 L14,6 L0,11 L0,2" fill="#323232" stroke="#323232" stroke-width="2"></path></marker></defs><g id="SvgjsG1140" transform="translate(39,25)"><path id="SvgjsPath1141" d="M 0 0L 789 0L 789 94L 0 94Z" stroke="rgba(50,50,50,1)" stroke-width="2" fill-opacity="1" fill="#ffff66"></path><g id="SvgjsG1142"><text id="SvgjsText1143" font-family="微软雅黑" text-anchor="middle" font-size="13px" width="769px" fill="#323232" font-weight="400" align="middle" anchor="middle" family="微软雅黑" size="13px" weight="400" font-style="" opacity="1" y="37.05" transform="rotate(0)"><tspan id="SvgjsTspan1144" dy="16" x="394.5"><tspan id="SvgjsTspan1145" style="text-decoration:;"> </tspan></tspan></text></g></g><g id="SvgjsG1146" transform="translate(42,269)"><path id="SvgjsPath1147" d="M 0 0L 789 0L 789 94L 0 94Z" stroke="rgba(50,50,50,1)" stroke-width="2" fill-opacity="1" fill="#ffff66"></path><g id="SvgjsG1148"><text id="SvgjsText1149" font-family="微软雅黑" text-anchor="middle" font-size="13px" width="769px" fill="#323232" font-weight="400" align="middle" anchor="middle" family="微软雅黑" size="13px" weight="400" font-style="" opacity="1" y="37.05" transform="rotate(0)"><tspan id="SvgjsTspan1150" dy="16" x="394.5"><tspan id="SvgjsTspan1151" style="text-decoration:;"> </tspan></tspan></text></g></g><g id="SvgjsG1152" transform="translate(42,141)"><path id="SvgjsPath1153" d="M 0 0L 789 0L 789 94L 0 94Z" stroke="rgba(50,50,50,1)" stroke-width="2" fill-opacity="1" fill="#ffff66"></path><g id="SvgjsG1154"><text id="SvgjsText1155" font-family="微软雅黑" text-anchor="middle" font-size="13px" width="769px" fill="#323232" font-weight="400" align="middle" anchor="middle" family="微软雅黑" size="13px" weight="400" font-style="" opacity="1" y="37.05" transform="rotate(0)"><tspan id="SvgjsTspan1156" dy="16" x="394.5"><tspan id="SvgjsTspan1157" style="text-decoration:;"> </tspan></tspan></text></g></g><g id="SvgjsG1158" transform="translate(159,37)"><path id="SvgjsPath1159" d="M 0 4Q 0 0 4 0L 96 0Q 100 0 100 4L 100 66Q 100 70 96 70L 4 70Q 0 70 0 66Z" stroke="rgba(50,50,50,1)" stroke-width="2" fill-opacity="1" fill="#ffffff"></path><g id="SvgjsG1160"><text id="SvgjsText1161" font-family="微软雅黑" text-anchor="middle" font-size="13px" width="80px" fill="#323232" font-weight="400" align="middle" anchor="middle" family="微软雅黑" size="13px" weight="400" font-style="" opacity="1" y="17.05" transform="rotate(0)"><tspan id="SvgjsTspan1162" dy="16" x="50"><tspan id="SvgjsTspan1163" style="text-decoration:;">VideoServer(</tspan></tspan><tspan id="SvgjsTspan1164" dy="16" x="50"><tspan id="SvgjsTspan1165" style="text-decoration:;">T)</tspan></tspan></text></g></g><g id="SvgjsG1166" transform="translate(362,37)"><path id="SvgjsPath1167" d="M 0 4Q 0 0 4 0L 96 0Q 100 0 100 4L 100 66Q 100 70 96 70L 4 70Q 0 70 0 66Z" stroke="rgba(50,50,50,1)" stroke-width="2" fill-opacity="1" fill="#ffffff"></path><g id="SvgjsG1168"><text id="SvgjsText1169" font-family="微软雅黑" text-anchor="middle" font-size="13px" width="80px" fill="#323232" font-weight="400" align="middle" anchor="middle" family="微软雅黑" size="13px" weight="400" font-style="" opacity="1" y="17.05" transform="rotate(0)"><tspan id="SvgjsTspan1170" dy="16" x="50"><tspan id="SvgjsTspan1171" style="text-decoration:;">UniversalSer</tspan></tspan><tspan id="SvgjsTspan1172" dy="16" x="50"><tspan id="SvgjsTspan1173" style="text-decoration:;">ver(T)</tspan></tspan></text></g></g><g id="SvgjsG1174" transform="translate(159,153)"><path id="SvgjsPath1175" d="M 0 4Q 0 0 4 0L 96 0Q 100 0 100 4L 100 66Q 100 70 96 70L 4 70Q 0 70 0 66Z" stroke="rgba(50,50,50,1)" stroke-width="2" fill-opacity="1" fill="#ffffff"></path><g id="SvgjsG1176"><text id="SvgjsText1177" font-family="微软雅黑" text-anchor="middle" font-size="13px" width="80px" fill="#323232" font-weight="400" align="middle" anchor="middle" family="微软雅黑" size="13px" weight="400" font-style="" opacity="1" y="25.05" transform="rotate(0)"><tspan id="SvgjsTspan1178" dy="16" x="50"><tspan id="SvgjsTspan1179" style="text-decoration:;">detector(T)</tspan></tspan></text></g></g><g id="SvgjsG1180" transform="translate(362,153)"><path id="SvgjsPath1181" d="M 0 4Q 0 0 4 0L 96 0Q 100 0 100 4L 100 66Q 100 70 96 70L 4 70Q 0 70 0 66Z" stroke="rgba(50,50,50,1)" stroke-width="2" fill-opacity="1" fill="#ffffff"></path><g id="SvgjsG1182"><text id="SvgjsText1183" font-family="微软雅黑" text-anchor="middle" font-size="13px" width="80px" fill="#323232" font-weight="400" align="middle" anchor="middle" family="微软雅黑" size="13px" weight="400" font-style="" opacity="1" y="17.05" transform="rotate(0)"><tspan id="SvgjsTspan1184" dy="16" x="50"><tspan id="SvgjsTspan1185" style="text-decoration:;">detectorMan</tspan></tspan><tspan id="SvgjsTspan1186" dy="16" x="50"><tspan id="SvgjsTspan1187" style="text-decoration:;">ager(T)</tspan></tspan></text></g></g><g id="SvgjsG1188" transform="translate(543,153)"><path id="SvgjsPath1189" d="M 0 4Q 0 0 4 0L 96 0Q 100 0 100 4L 100 66Q 100 70 96 70L 4 70Q 0 70 0 66Z" stroke="rgba(50,50,50,1)" stroke-width="2" fill-opacity="1" fill="#ffffff"></path><g id="SvgjsG1190"><text id="SvgjsText1191" font-family="微软雅黑" text-anchor="middle" font-size="13px" width="80px" fill="#323232" font-weight="400" align="middle" anchor="middle" family="微软雅黑" size="13px" weight="400" font-style="" opacity="1" y="17.05" transform="rotate(0)"><tspan id="SvgjsTspan1192" dy="16" x="50"><tspan id="SvgjsTspan1193" style="text-decoration:;">lockControl(</tspan></tspan><tspan id="SvgjsTspan1194" dy="16" x="50"><tspan id="SvgjsTspan1195" style="text-decoration:;">T)</tspan></tspan></text></g></g><g id="SvgjsG1196" transform="translate(159,281)"><path id="SvgjsPath1197" d="M 0 4Q 0 0 4 0L 96 0Q 100 0 100 4L 100 66Q 100 70 96 70L 4 70Q 0 70 0 66Z" stroke="rgba(50,50,50,1)" stroke-width="2" fill-opacity="1" fill="#ffffff"></path><g id="SvgjsG1198"><text id="SvgjsText1199" font-family="微软雅黑" text-anchor="middle" font-size="13px" width="80px" fill="#323232" font-weight="400" align="middle" anchor="middle" family="微软雅黑" size="13px" weight="400" font-style="" opacity="1" y="25.05" transform="rotate(0)"><tspan id="SvgjsTspan1200" dy="16" x="50"><tspan id="SvgjsTspan1201" style="text-decoration:;">Camera</tspan></tspan></text></g></g><g id="SvgjsG1202" transform="translate(362,281)"><path id="SvgjsPath1203" d="M 0 4Q 0 0 4 0L 96 0Q 100 0 100 4L 100 66Q 100 70 96 70L 4 70Q 0 70 0 66Z" stroke="rgba(50,50,50,1)" stroke-width="2" fill-opacity="1" fill="#ffffff"></path><g id="SvgjsG1204"><text id="SvgjsText1205" font-family="微软雅黑" text-anchor="middle" font-size="13px" width="80px" fill="#323232" font-weight="400" align="middle" anchor="middle" family="微软雅黑" size="13px" weight="400" font-style="" opacity="1" y="25.05" transform="rotate(0)"><tspan id="SvgjsTspan1206" dy="16" x="50"><tspan id="SvgjsTspan1207" style="text-decoration:;">AMG8833</tspan></tspan></text></g></g><g id="SvgjsG1208" transform="translate(708,281)"><path id="SvgjsPath1209" d="M 0 4Q 0 0 4 0L 96 0Q 100 0 100 4L 100 66Q 100 70 96 70L 4 70Q 0 70 0 66Z" stroke="rgba(50,50,50,1)" stroke-width="2" fill-opacity="1" fill="#ffffff"></path><g id="SvgjsG1210"><text id="SvgjsText1211" font-family="微软雅黑" text-anchor="middle" font-size="13px" width="80px" fill="#323232" font-weight="400" align="middle" anchor="middle" family="微软雅黑" size="13px" weight="400" font-style="" opacity="1" y="25.05" transform="rotate(0)"><tspan id="SvgjsTspan1212" dy="16" x="50"><tspan id="SvgjsTspan1213" style="text-decoration:;">BME680</tspan></tspan></text></g></g><g id="SvgjsG1214" transform="translate(543,281)"><path id="SvgjsPath1215" d="M 0 4Q 0 0 4 0L 96 0Q 100 0 100 4L 100 66Q 100 70 96 70L 4 70Q 0 70 0 66Z" stroke="rgba(50,50,50,1)" stroke-width="2" fill-opacity="1" fill="#ffffff"></path><g id="SvgjsG1216"><text id="SvgjsText1217" font-family="微软雅黑" text-anchor="middle" font-size="13px" width="80px" fill="#323232" font-weight="400" align="middle" anchor="middle" family="微软雅黑" size="13px" weight="400" font-style="" opacity="1" y="25.05" transform="rotate(0)"><tspan id="SvgjsTspan1218" dy="16" x="50"><tspan id="SvgjsTspan1219" style="text-decoration:;">ServoSG90</tspan></tspan></text></g></g><g id="SvgjsG1220" transform="translate(25,52)"><path id="SvgjsPath1221" d="M 0 0L 120 0L 120 40L 0 40Z" stroke="none" fill="none"></path><g id="SvgjsG1222"><text id="SvgjsText1223" font-family="微软雅黑" text-anchor="middle" font-size="13px" width="120px" fill="#323232" font-weight="400" align="middle" anchor="middle" family="微软雅黑" size="13px" weight="400" font-style="" opacity="1" y="10.05" transform="rotate(0)"><tspan id="SvgjsTspan1224" dy="16" x="60"><tspan id="SvgjsTspan1225" style="text-decoration:;">Session</tspan></tspan></text></g></g><g id="SvgjsG1226" transform="translate(25,168)"><path id="SvgjsPath1227" d="M 0 0L 120 0L 120 40L 0 40Z" stroke="none" fill="none"></path><g id="SvgjsG1228"><text id="SvgjsText1229" font-family="微软雅黑" text-anchor="middle" font-size="13px" width="120px" fill="#323232" font-weight="400" align="middle" anchor="middle" family="微软雅黑" size="13px" weight="400" font-style="" opacity="1" y="10.05" transform="rotate(0)"><tspan id="SvgjsTspan1230" dy="16" x="60"><tspan id="SvgjsTspan1231" style="text-decoration:;">Service</tspan></tspan></text></g></g><g id="SvgjsG1232" transform="translate(25,296)"><path id="SvgjsPath1233" d="M 0 0L 120 0L 120 40L 0 40Z" stroke="none" fill="none"></path><g id="SvgjsG1234"><text id="SvgjsText1235" font-family="微软雅黑" text-anchor="middle" font-size="13px" width="120px" fill="#323232" font-weight="400" align="middle" anchor="middle" family="微软雅黑" size="13px" weight="400" font-style="" opacity="1" y="10.05" transform="rotate(0)"><tspan id="SvgjsTspan1236" dy="16" x="60"><tspan id="SvgjsTspan1237" style="text-decoration:;">HAL</tspan></tspan></text></g></g><g id="SvgjsG1238"><path id="SvgjsPath1239" d="M209 107L209 130L209 130L209 153" stroke="#323232" stroke-width="2" fill="none" marker-end="url(#SvgjsMarker1240)"></path></g><g id="SvgjsG1242"><path id="SvgjsPath1243" d="M259 188L310.5 188L310.5 188L362 188" stroke="#323232" stroke-width="2" fill="none" marker-end="url(#SvgjsMarker1244)"></path></g><g id="SvgjsG1246"><path id="SvgjsPath1247" d="M462 188L502.5 188L502.5 188L543 188" stroke="#323232" stroke-width="2" fill="none" marker-end="url(#SvgjsMarker1248)"></path></g><g id="SvgjsG1250"><path id="SvgjsPath1251" d="M593 223L593 252L593 252L593 281" stroke="#323232" stroke-width="2" fill="none" marker-end="url(#SvgjsMarker1252)"></path></g><g id="SvgjsG1254"><path id="SvgjsPath1255" d="M462 72L758 72L758 281" stroke="#323232" stroke-width="2" fill="none" marker-end="url(#SvgjsMarker1256)"></path></g><g id="SvgjsG1258"><path id="SvgjsPath1259" d="M412 107L412 130L593 130L593 153" stroke="#323232" stroke-width="2" fill="none" marker-end="url(#SvgjsMarker1260)"></path></g><g id="SvgjsG1262"><path id="SvgjsPath1263" d="M412 223L412 252L412 252L412 281" stroke="#323232" stroke-width="2" fill="none" marker-end="url(#SvgjsMarker1264)"></path></g><g id="SvgjsG1266"><path id="SvgjsPath1267" d="M209 223L209 252L209 252L209 281" stroke="#323232" stroke-width="2" fill="none" marker-end="url(#SvgjsMarker1268)"></path></g></svg>